<?xml version="1.0"?><svg width="1500" height="1500" xmlns="http://www.w3.org/2000/svg">

 <metadata id="metadata5681">image/svg+xml</metadata>
 <g>
  <title>Layer 1</title>
  <g id="layer1">
   <path transform="rotate(45, 785.121, 775.797)" fill="#000000" id="path9976" d="m1323.59021,723.01947l-153.580078,10.63501l-34.909912,32.742737c-246.53418,1.757507 -493.058533,3.533997 -739.590515,5.291565c-2.105682,-2.675232 -0.797211,-4.378601 0,-6.232788l30.964996,-42.384521c-61.170258,25.516541 -121.117676,54.425537 -192.273911,52.233948c-6.789352,-0.240662 -3.022934,9.601746 2.161591,10.948792c66.633316,7.209656 137.224075,10.285828 180.222733,42.06842c3.008209,1.880249 10.122162,-7.431396 8.051941,-9.323425l-19.346039,-24.466797c-2.311035,-2.720032 0.894012,-3.194153 3.242432,-3.092834l727.538086,-5.761047l47.609375,30.175903l143.907715,1.833008c22.022217,-0.849243 8.660156,-14.062866 1.67627,-17.287903l-38.854248,-17.0802c4.100098,-7.230774 4.518677,-14.459106 -0.973511,-21.689941l40.421509,-26.299805c3.679443,-1.670288 2.007446,-11.194214 -6.268433,-12.31012zm-30.911499,10.111328c0.206665,-0.023621 0.308838,0.035461 0.379517,0.103821c0.240723,0.233582 -1.068359,1.085266 -1.136353,1.151245c-0.540527,0.526184 -0.664551,2.970215 -1.567383,3.406616c-1.170166,0.568542 -2.513672,1.283447 -3.457764,2.198853c-0.236206,0.231079 0.046265,2.172607 0.216553,2.252869c0.552368,0.268982 2.408936,-0.493042 2.917725,0c0.123901,0.122681 -0.486816,1.264526 -0.540039,1.467346c-0.119507,0.464844 -0.043823,1.665588 -0.377441,1.99115c-1.61084,1.561829 -4.341187,1.722229 -6.540894,3.142517c-1.046387,0.676941 -1.613281,1.745667 -2.754517,2.41095c-2.394775,1.391968 -5.280518,1.226807 -7.672852,2.618713c-0.836914,0.488281 -1.345337,1.745667 -2.270264,2.042908c-3.250977,1.052185 -7.025146,1.450928 -10.159668,2.463074c-3.285034,1.061523 -7.796387,-1.146667 -10.91626,0.368042c-1.155762,0.559021 -2.051147,1.752747 -3.1875,2.304749c-0.863892,0.417603 -2.419067,0.929565 -2.703491,1.205627c-0.805664,0.780823 -3.516602,-3.198975 -4.808472,-3.510376c-3.166138,-0.769104 4.88623,-10.019409 -3.674683,-5.869507c-1.046265,0.507141 -1.893066,1.346985 -3.080688,1.729126c-0.987793,0.318542 -2.932007,0.794983 -3.783936,1.415527c-0.749512,0.544922 -1.920044,0.561401 -2.754639,1.099304c-6.23938,4.03186 -8.65332,3.406677 -15.727173,3.406677c-2.012207,0 -3.888428,-0.393982 -5.781616,0.523621c-0.881104,0.427124 -1.343262,1.278687 -2.1073,1.833069c-2.866699,2.083313 -6.750488,2.776794 -10.32019,2.776794c-0.788574,0 -2.922485,0.363403 -3.567505,-0.26178c-0.391846,-0.379883 7.232422,-6.959595 8.699707,-8.382141c5.15625,-4.999023 15.851196,-11.687317 22.859253,-13.046082c3.00769,-0.582703 5.986206,-1.007324 8.969849,-1.833008c5.212158,-1.443848 9.507202,-4.430664 14.646606,-5.605469c-0.031616,0.02124 -0.034058,0.0495 0.053345,0.103821l0.053589,0c0.67395,0.412903 3.725586,1.623047 4.051514,1.726929c3.134521,1.014404 5.419189,-0.207642 8.53894,-0.207642c4.406982,0 -9.232056,4.626343 -7.782104,7.438354c0.869019,1.682129 7.076416,1.340027 9.402832,0.839966c3.769409,-0.813965 21.085571,-4.987305 22.752197,-6.603333c1.324097,-1.283325 4.884155,-3.602295 6.538696,-4.137878c0.810425,-0.261902 5.14209,-2.408752 6.592407,-2.566711l0,0.002258zm-87.814819,4.241882c1.635498,-0.089722 3.9104,0.264221 5.080933,0.264221c0.995239,0 2.771606,-0.247864 3.2948,0.26178c0.941895,0.910645 -1.375,3.727478 -2.160767,3.979858c-2.83252,0.915405 -4.69165,1.776489 -7.402588,3.092773c-0.574219,0.278503 -2.214355,2.665894 -2.540405,3.300598c-0.761719,1.476807 -3.392212,2.547852 -4.484741,4.137939c-1.961304,2.849854 -9.473389,4.836121 -12.106079,7.386353c-1.246094,1.207947 -3.910767,-3.857056 -5.511963,-2.304749c-0.306396,0.2995 -3.426147,2.283569 -4.377563,1.361267c-0.600952,-0.582764 -3.542847,-2.085571 -4.321899,-1.83313c-4.934814,1.594727 -22.168457,11.724976 -26.750488,7.282715c-2.413818,-2.340271 6.706665,-8.4646 7.835693,-9.011963c1.606079,-0.776123 3.095215,-3.298157 4.755005,-4.503601c1.343018,-0.976746 1.80542,-2.814453 3.24353,-3.510376c2.606323,-1.264526 5.550781,-2.786194 8.052124,-4.402283c0.730103,-0.471802 1.158203,-1.424927 1.998047,-1.832886c4.822998,-2.338074 15.693115,1.844727 6.647949,5.029541c0.45752,0.740845 1.693848,1.814209 2.324097,1.205627c2.515991,-2.439331 20.209229,-7.282715 25.073608,-9.639465c0.333618,-0.162903 0.805786,-0.233582 1.350708,-0.264221zm-799.572876,2.252869c-10.734406,11.076294 -18.118774,22.256165 -38.368439,33.006897l21.292114,-0.103821c-0.023956,0.030701 -0.030792,0.073181 -0.05426,0.103821c-0.660797,0.849304 -1.29895,1.776489 -1.891266,2.672974c-0.133331,0.21228 -0.26181,0.4151 -0.378387,0.627441c-36.159882,-0.032959 -90.03009,-0.051697 -90.03009,-0.051697c37.522095,-8.377502 73.213287,-23.277832 109.430542,-36.253174l-0.000214,-0.002441zm868.095581,29.23468c0,0 -1.516235,2.979553 -0.377441,5.553406c0.082764,0.186279 -6.137085,0.32312 -15.454712,0.471802c0.087646,-1.156067 0.182739,-3.109436 0.593872,-5.973389l15.238281,-0.051819l0,0zm-50.634644,0.2099c0.634888,0.669922 1.39209,1.321106 2.323853,1.88501c1.092773,0.672302 2.265503,1.240967 3.404541,1.833069c1.389282,0.750122 2.888062,1.266724 4.431274,1.625427c0.435547,0.082642 0.86853,0.11792 1.296875,0.2099c0.016968,0 0.028931,0 0.053223,0c0.019775,0 0.014893,0.042542 0.053833,0.051819c0.014404,0 0.039063,0 0.053711,0c0.036377,0.021423 0.053345,0.033203 0.109253,0.052063c0.119385,0.028198 0.270264,0.049561 0.377319,0.101379c0.201904,0.077942 0.432983,0.193542 0.810303,0.316223c-17.199341,0.15332 -40.046753,0.2547 -67.116089,0.365601c0.172729,-0.096558 0.369873,-0.155701 0.540283,-0.26178c0.051025,0 0.026733,0 0.270142,0c1.21167,0.021118 2.41626,-0.070862 3.620728,-0.210083c0.158325,-0.021179 0.326294,-0.028259 0.486694,-0.05188c4.217163,-0.587463 6.66272,-2.970093 7.619263,-5.761047l41.664795,-0.15802l0,0.002319zm-79.81604,0.313721c1.158447,1.571289 2.927368,2.859253 5.511597,3.510376c-0.033813,-0.021118 0.073242,0.051941 0.107056,0.051941c0.28479,0.101501 0.57666,0.170044 0.86377,0.261841c0.598633,0.188782 1.182861,0.401184 1.783813,0.575745c1.253296,0.384583 2.477295,0.769043 3.730469,1.153625c0.620605,0.23584 0.963745,0.386841 1.511108,0.575684c0.05603,0.021118 0.109497,0.035217 0.163086,0.051758c-55.666504,0.207642 -126.289307,0.342163 -204.59436,0.419922c0.467468,-1.934387 0.216553,-3.977478 -0.649658,-5.763367l46.692322,-0.209961c0.698303,0.299622 1.423645,0.540283 2.161011,0.733826c0.170227,0.044739 -0.265076,-0.035461 -0.540222,-0.103821c1.238525,0.424622 2.530884,0.556702 3.835083,0.629822c0.776367,0.025818 1.549988,0.051941 2.323914,0.049438c0.124207,0 0.503662,0 0.812622,0c0.026917,0 0.026917,0 0.053467,0c0.554993,0.193542 0.856812,0.332642 1.24115,0.420044c0.131653,0.04248 0.248291,0.07074 0.3797,0.103821c0.041382,0.021179 0.060791,-0.021301 0.107056,0c0.674194,0.172241 1.362549,0.3302 2.053894,0.419861c0.966003,0.106201 1.949036,0.103821 2.917664,0.103821c0.612793,0 1.22644,0 1.837158,0c0.761719,-0.002441 1.510986,0 2.270386,0l2.000244,0l1.567017,0c0.791138,0.294983 1.572021,0.580322 2.377319,0.837463c1.092712,0.360962 2.168518,0.698425 3.297424,0.943726c1.837402,0.327881 3.643066,0.17926 5.402344,-0.316223c1.005249,-0.278381 0.744507,-0.207642 0.756714,-0.207642c0.333374,-0.002319 0.693604,0 1.026978,0c0.094849,0.021301 0.111816,0.021301 0.27002,0.052002l0.053589,0c0.922241,0.285339 1.854004,0.495544 2.810547,0.627563c1.335938,0.127441 2.791382,0.219482 4.107422,-0.103882c0.630371,-0.155579 1.214478,-0.34436 1.83728,-0.523682c0.092773,0 0.177856,0 0.270386,0c0.566772,-0.02124 1.163086,-0.052002 1.730103,-0.052002c0.788574,0.002502 1.535522,0 2.32373,0c0.552246,0 1.121948,0 1.674316,0c0.768921,0 1.554932,0 2.323975,0c1.764038,0.07312 3.511108,-0.153198 5.241699,-0.471741c0.124023,-0.02594 0.282104,-0.0755 0.432983,-0.101379c1.197266,0.245239 2.399292,0.297241 3.621094,0.31366c1.196899,0.028381 2.423584,0.023621 3.61853,-0.051819c0.204102,0 1.092407,-0.139343 1.296753,-0.158081c0.435425,0 0.864136,0 1.297119,0c1.452759,0 2.87146,0 4.324219,0c1.352905,0.025879 2.710815,-0.02832 4.053955,-0.210022c1.944458,-0.273682 3.779175,-0.955383 5.295288,-2.198669c0.403809,-0.330261 0.727417,-0.721985 1.080444,-1.101624l61.333862,-0.262024l0.002563,0zm-246.151978,1.047607c0.158142,0.094299 0.325806,0.167419 0.486511,0.261719c1.022278,0.637085 2.026917,1.318848 3.024719,1.99115c1.129211,0.825806 2.32135,1.557129 3.567261,2.201111c0.81781,0.398621 1.652466,0.785522 2.487183,1.151245c-13.1698,0.021179 -26.446289,0 -39.827698,0c0,-0.103821 -0.005066,-0.212341 0,-0.313721c-0.016968,-0.417542 -0.026917,-2.802612 -0.053467,-5.185364l30.315491,-0.103821l0,-0.002319zm-35.179871,0.157898l0.863586,0c0.01709,1.700928 0.039124,3.543518 0.053589,3.772278c-0.306702,-0.219238 -0.613098,-1.922668 -0.917175,-3.772278l0,0zm-13.133423,0.052063c-0.133606,1.880188 -0.292114,3.607117 -0.430603,3.982117c-0.058655,0.122681 -0.097168,0.247742 -0.162842,0.365723c-0.009888,0.02124 -0.044067,0.035461 -0.053833,0.051941l-1.026733,0.051819c0.065552,0.134521 0.148376,0.280823 0.216431,0.420044c0.102173,0.2099 0.250793,0.365479 0.377136,0.523621c-30.08429,0.021179 -58.776611,0.049561 -89.055542,0.049561c0.0755,-0.101501 0.143433,-0.209961 0.21405,-0.313782c0.442871,-0.627441 21.69873,-4.220459 22.102539,-4.871643l67.819397,-0.261841l0,0.002441zm-91.109314,0.365601c-0.494141,0.879883 -0.983215,1.762207 -1.513672,2.621033c-0.430847,0.627502 -0.817566,1.342285 -1.297119,1.936768c-0.116699,0.188843 -0.245605,0.358582 -0.377075,0.523743c-5.730774,0.002441 -11.1474,0 -16.861267,0c0.031799,-0.139038 0.095032,-0.27356 0.107239,-0.417603c0.170288,-0.886963 0.4599,-1.736206 0.649719,-2.620911c0.160645,-0.665344 0.321228,-1.318726 0.430725,-1.988892l18.86145,-0.051697l0,-0.002441zm-22.806091,0.10376c-0.09729,0.613464 -0.223816,1.217346 -0.377136,1.833008c-0.209351,0.891907 -0.576843,1.776611 -0.756897,2.673157c-0.014465,0.167358 -0.068054,0.318237 -0.109375,0.471619c-11.785034,0 -23.124756,0 -34.800354,0c0.379578,-0.240662 0.768799,-0.464661 1.133911,-0.733643c0.530518,-0.419861 0.849365,-0.978943 1.136597,-1.571167c0.352722,-0.648682 0.698303,-1.283508 1.133789,-1.88739c0.141235,-0.22876 0.279785,-0.460083 0.433228,-0.679443l32.206238,-0.103638l0,-0.002502zm-40.204956,0.158081c-0.30896,0.419922 -0.635193,0.830444 -0.919678,1.257568c-0.338318,0.554321 -0.74707,1.066223 -0.971008,1.674805c-0.165466,0.601624 -0.160583,1.217346 -0.163086,1.835449c0,0.021179 0,0.03302 0,0.05188c-7.886658,-0.002319 -15.749084,0 -23.560364,0c0.012207,-0.139038 0.031799,-0.283081 0.05365,-0.419922c0.128967,-0.889404 0.236084,-1.776367 0.323669,-2.672791c0.077759,-0.538025 0.17749,-1.087708 0.27002,-1.623169l24.966797,-0.103821l0,0zm-28.911377,0.103821c-0.102173,0.521423 -0.192261,1.042664 -0.27002,1.571106c-0.075439,0.898926 -0.192383,1.78125 -0.32373,2.673157c-0.024231,0.153259 -0.036438,0.31366 -0.053528,0.469299c-26.169067,0 -51.722229,0.023682 -76.574768,0c0,-0.478943 -0.002319,-0.929382 0,-1.413086c0,-0.523743 0.004883,-1.049927 0,-1.571289c-0.009705,-0.469421 -0.046204,-0.948364 -0.109497,-1.415405l77.331543,-0.313782l0,0zm-81.32959,0.365662c0.063293,0.450623 0.099792,0.915283 0.107056,1.363525c0.004944,0.521362 0.002441,1.049805 0,1.571289c0,0.483704 0,0.934143 0,1.413086c-3.372681,0 -6.059204,0.002319 -9.402832,0c0,-0.12262 0,-0.24054 0,-0.365723c0.005005,-0.544922 0.029358,-1.129944 0,-1.677368c-0.050964,-0.764343 -0.15802,-1.507446 -0.323486,-2.252808l9.619263,-0.049622l0,-0.00238zm-17.941528,0.052002l4.324219,0c0.160583,0.761963 0.284607,1.526306 0.323608,2.304749c0.019531,0.537903 0.004822,1.087585 0,1.625427c-0.002502,0.125183 0,0.245361 0,0.365723c-0.058411,0 -0.104675,0 -0.163025,0c-0.172791,-0.542603 -0.355225,-1.082886 -0.540161,-1.623047c-0.187439,-0.429382 -0.372375,-0.854004 -0.756897,-1.153625c-0.347961,-0.363403 -0.815063,-0.670044 -1.296875,-0.837524c-0.630371,-0.2453 -1.258179,-0.460022 -1.890869,-0.681702l0,0zm453.44751,0c0.089966,0.037659 0.182617,0.070618 0.27002,0.10376c-0.053467,-0.021301 -0.043823,0.021118 -0.106934,0c-0.065674,-0.021301 -0.226563,-0.132263 -0.163086,-0.10376l0,0zm-465.011169,0.051819l6.482605,0c0.014771,0 0.041382,0 0.055969,0c0.97821,0.422241 2.017273,0.750183 3.024719,1.101624c0.457581,0.141663 0.866333,0.398743 1.243591,0.679443c0.357666,0.271301 0.574158,0.601624 0.756775,0.995544c0.182495,0.481323 0.284668,0.976746 0.433105,1.467468c-0.11438,0 -0.211731,0 -0.326111,0c-0.072998,-0.02594 -0.138733,-0.0802 -0.216431,-0.103821c-0.525696,-0.150879 -1.056152,-0.27356 -1.567261,-0.471802c-0.603455,-0.235901 -1.209351,-0.450623 -1.83728,-0.627625c-0.90509,-0.299622 -1.793213,-0.62262 -2.6474,-1.047302c-0.768921,-0.323242 -1.572021,-0.608643 -2.377441,-0.839844c-0.455139,-0.085144 -0.871216,-0.245483 -1.297058,-0.417664c-0.199524,-0.108582 -0.445435,-0.113159 -0.647278,-0.209961c-0.545166,-0.252319 0.201843,0.040039 -0.379639,-0.261841c-0.078003,-0.04248 -0.187439,-0.073242 -0.27002,-0.103821c-0.138794,-0.063599 -0.289734,-0.103821 -0.430847,-0.15802l0,-0.00238zm-5.244019,0.051941c0.576843,0.17688 1.168091,0.313721 1.730286,0.523621c0.435486,0.170044 0.80542,0.464905 1.243408,0.629944c0.425781,0.190979 0.90033,0.337341 1.350586,0.471863c0.815186,0.193481 1.598816,0.483582 2.377319,0.785583c0.868713,0.396423 1.747253,0.724243 2.647583,1.047607c0.603516,0.209839 1.243408,0.398499 1.83728,0.62738c0.070557,0.02594 0.148499,0.02594 0.216614,0.05188c-23.813477,-0.021179 -46.385925,0.021362 -68.035828,0c-0.002411,-0.021179 0.004669,-0.030701 0,-0.05188c-0.005005,-0.070801 0.007172,-0.136963 0,-0.207642c0.703217,-0.02124 1.404083,0.023621 2.107239,0c0.287109,-0.02124 0.131378,-0.544922 0.109528,-0.629944c-0.131317,-0.092041 -0.287231,-0.153259 -0.433044,-0.2099c0.247955,-0.058899 0.488922,-0.165161 0.593658,-0.417603c0.063171,-0.502502 -0.350464,-0.662903 -0.756775,-0.837463c-0.550049,-0.2052 -1.146088,-0.24054 -1.727814,-0.264221l-0.649689,0c-0.148407,-0.313721 -0.36496,-0.627502 -0.59375,-0.889343c-0.097229,-0.155762 -0.214111,-0.278442 -0.323669,-0.419983l58.309509,-0.207642l-0.002441,-0.002258zm-62.468201,0.2099c0.209351,0.179321 0.374756,0.408081 0.5401,0.627625c0.168091,0.214539 0.289673,0.452942 0.430817,0.681702c-0.289642,0 -0.574127,0 -0.8638,0c-0.450134,-0.139221 -0.912567,-0.299622 -1.350647,-0.471863c-0.294403,-0.030762 -0.632599,-0.342041 -0.919647,-0.365601c-0.09491,0 -0.017151,0.221741 0,0.313721l-0.754578,-0.10376c-0.284668,-0.195862 -0.557037,-0.403564 -0.812683,-0.627502l3.730438,-0.051941l0,-0.00238zm-7.945099,0.05188c0.365082,0.391663 0.747101,0.783325 1.189972,1.099426c0.447784,0.320801 0.924744,0.613342 1.403931,0.891602c-0.255402,0.077942 -0.500977,0.181763 -0.756653,0.262024c-0.219147,-0.040161 -0.433105,-0.0448 -0.647278,-0.103821c-0.596161,-0.087341 -1.141296,-0.299683 -1.730103,-0.419922c-0.941772,-0.259644 -1.881104,-0.420044 -2.864136,-0.420044c-2.12439,-0.136719 -4.302307,-0.108398 -6.431641,-0.101318c-0.69104,-0.021301 -1.384644,-0.073242 -2.051178,-0.261963c-0.856781,-0.247681 -1.70108,-0.566162 -2.540771,-0.891663l14.427856,-0.05188l0,-0.002441zm-19.615723,0.103882c0.197113,0.075439 0.396606,0.132141 0.593811,0.207642c1.043823,0.434021 2.10965,0.809143 3.187622,1.153564c0.662048,0.214722 1.362854,0.320801 2.054016,0.365601c1.717957,0.052002 3.416443,0.068359 5.134338,0.052002c0.087646,0.021179 0.262817,0.03064 0.649841,0.051758c0.223816,0.021423 0.476959,0.035461 0.700745,0.052063c0.949097,0.044739 1.888336,0.08728 2.810669,0.313782c0.581665,0.134399 1.145966,0.285339 1.730042,0.419739c0.637573,0.167542 1.289734,0.257263 1.944336,0.313843c-0.333405,0 -0.640015,0 -0.973328,0l-5.295197,0c-1.963806,-0.021118 -3.925079,-0.021118 -5.891327,0c-0.586395,0.02124 -1.180206,-0.025879 -1.7276,0.209961c-0.233673,0.202881 -0.316315,0.393921 -0.27005,0.575623c-11.959137,0 -16.161163,0.021118 -27.128815,0c-0.404694,-0.28302 -0.826447,-0.582642 -1.242859,-0.837402c-0.546234,-0.328003 -1.159332,-0.394165 -1.783295,-0.471863c-0.54245,-0.108643 -1.069122,-0.165161 -1.621094,-0.207642c-0.682648,-0.035461 -1.369904,-0.0495 -2.053528,-0.051819c-1.676727,0 -3.349274,0 -5.025757,0c0.106476,-0.002441 -0.218964,-0.0354 -0.324158,-0.052063c-0.329407,-0.04718 -0.65387,-0.120117 -0.972778,-0.209839c-0.601807,-0.172241 -1.171753,-0.457825 -1.729462,-0.733643c-0.437439,-0.174744 -0.676239,-0.462524 -0.918304,-0.837646c-0.051666,-0.101379 -0.033295,-0.14386 0,-0.158081l0.378174,0l0.108124,0l37.665833,-0.157959l0,0.00238zm-42.205414,0.157959c-0.004364,0.101501 0.0112,0.235901 0.054077,0.365723c0.060577,0.108521 0.149872,0.210022 0.216034,0.31366l-2.594025,0.368042c1.277771,0.320984 2.533844,0.684265 3.782745,1.099426c0.719147,0.22644 1.394958,0.533203 2.053619,0.889404c0.32019,0.186279 0.639587,0.365784 0.972626,0.526123c-16.547546,-0.02124 -18.479126,-0.042419 -31.667389,-0.051941l0.270142,-0.419922c0.579071,-0.887024 1.185913,-1.781128 1.837372,-2.618652c0.100616,-0.132202 0.217651,-0.240662 0.32431,-0.367981l24.750244,-0.103882l0.000244,0zm435.182434,1.464966c0.07074,0.056824 0.143799,0.103882 0.216797,0.158203c0.508545,0.43866 0.914673,0.910522 1.350403,1.415405c0.073059,0.082642 0.104736,0.245361 0.216614,0.261902c1.372437,0.115662 2.730469,0.066101 4.107483,0.103821c0.311462,-0.273743 0.447876,-0.658142 0.540283,-1.047485c0.462585,0.325562 0.941772,0.667664 1.404358,0.993225c0.114197,0.0849 0.216431,0.17688 0.323364,0.264221c-3.146362,0 -6.192871,-0.002319 -9.346863,0c0.394592,-0.353699 0.725403,-0.804443 0.864075,-1.257446c0.107056,-0.294983 0.214172,-0.599243 0.323486,-0.891846l0,0zm-426.536011,1.101929l0.432465,0c0.676453,0 1.377136,0.032959 2.053528,0.051758c0.549622,0.023621 1.084198,0.03302 1.621185,0.155701c0.592773,0.12738 1.222931,0.101501 1.783203,0.368042c0.232117,0.129761 0.472504,0.28302 0.702423,0.419983c-2.997131,-0.00238 -2.492462,0 -5.40387,0c-0.374908,-0.134399 -0.746399,-0.287781 -1.134827,-0.368042c-0.439575,-0.10144 -0.798187,-0.365662 -1.188812,-0.575684c0.382599,-0.021179 0.74939,-0.0354 1.134705,-0.051758l0,0zm44.151764,0.837402l3.457703,0l2.917816,0c-0.177704,0.059143 -0.362701,0.099121 -0.540375,0.158081c-2.287415,-0.00238 -5.149048,0 -7.402405,0c-0.051086,-0.02124 -0.09729,-0.070801 -0.163086,-0.103821c0.569397,-0.051941 1.158386,-0.051941 1.730347,-0.051941l0,-0.002319zm11.456238,0l3.13443,0c0.89798,0 1.802979,0 2.70105,0c0.116791,0.06134 0.258057,0.092041 0.377258,0.158081c-2.129303,-0.00238 -4.64798,0 -6.75528,0c0.180084,-0.056702 0.362671,-0.101563 0.542542,-0.158081zm783.847076,6.914551c0.96106,0.561584 2.479736,0.153381 3.187866,0.839966c0.569214,0.549744 2.073242,1.528748 3.134033,2.04303c1.01001,0.488281 4.09314,0.703003 4.484741,1.467407c1.031982,1.99823 6.54126,3.675537 6.54126,5.291687c0,4.522278 -6.046997,0.528442 -7.891479,-1.257507c-0.656982,-0.639343 -4.407104,0.500183 -4.808594,0.889404c-0.240967,0.233521 -0.021729,1.372925 -0.703125,1.153687c-2.565063,-0.830444 -1.00769,-2.02655 -2.430786,-3.406677c-2.370361,-2.297852 -8.755737,-5.046326 -1.513916,-7.020996zm-54.688599,1.83551c6.390137,-0.15564 15.856079,0.469543 19.995361,0.469543c3.511597,0 18.233765,-0.747925 20.749634,0.471802c1.64502,0.797424 2.703491,3.241455 4.270874,4.505981c2.759277,2.23175 7.438721,3.458496 4.701172,7.440796c-4.431152,6.44043 -17.381714,-0.2854 -22.04895,-3.300415c-1.053711,-0.681885 -5.852295,-2.783875 -6.485107,-0.943787c-1.192383,3.468018 7.219971,8.351501 5.891113,9.639465c-0.48645,0.471924 -1.944214,-1.205444 -2.430542,-1.361084c-1.606445,-0.519104 -3.239502,-0.509583 -4.75769,0.46936c-1.104858,0.717224 -2.426147,1.205444 -3.998169,1.205444c-4.956665,0 -14.125854,-6.69043 -18.588623,-8.853882c-1.567017,-0.759644 -2.219482,-2.882874 -3.134277,-3.772156c-1.299561,-1.259827 -4.613892,-1.677429 -5.18811,-3.404236c1.389526,0.22406 4.285278,-1.69397 5.944824,-2.09729c1.145996,-0.276062 2.949341,-0.417542 5.078491,-0.469543zm-56.14624,0.627502c3.533203,0.0354 10.534546,0.205383 10.536865,0.210144c1.022095,0.988342 1.997925,3.333435 3.404297,4.241577c1.002686,0.648865 2.74231,1.099426 3.513916,2.09729c1.060669,1.370667 0.878418,3.173157 1.674316,4.713745c0.527954,1.026184 2.878662,2.852173 2.270386,4.034058c-3.64563,7.070374 -16.8396,-5.567566 -20.482422,-7.334717c-2.386963,-1.155884 -5.231689,-2.712891 -6.915771,-4.347717c-0.437744,-0.424683 -0.335571,-1.203186 -0.27002,-1.937073c-0.155884,0.028381 -0.238525,0.028381 -0.27002,0c-0.277588,-0.268799 0.27002,-0.721802 0.27002,-1.101685c0.055908,0.302063 0.03418,0.700684 0,1.101685c0.973389,-0.186279 4.015015,-1.380005 4.268188,-1.625305c0.029419,-0.028381 0.819946,-0.063782 2.000244,-0.052002l0,0zm27.93811,0.103821c1.656982,-0.032959 3.170654,0.146362 4.268188,0.681885c2.581665,1.250366 4.88147,3.217773 7.889282,4.189758c1.094971,0.353943 2.007446,3.550476 3.243774,4.3479c0.700684,0.453064 5.630737,4.329163 5.458252,4.664063c-0.472412,0.913147 -4.10791,0.365784 -5.295288,0.365784c-8.032715,0 -15.259766,-5.435547 -20.752075,-9.429626c-0.883301,-0.641663 -2.260742,-0.379822 -2.757202,-1.099243c-0.581543,-0.849243 0.340942,-3.001038 0.270142,-2.776794c1.807861,-0.292603 4.910522,-0.889465 7.674927,-0.943726z"/>
  </g>
 </g>
</svg>